<svg data-v-fde0c5aa="" xmlns="http://www.w3.org/2000/svg" viewBox="0 0 300 300" class="iconLeft"><!----><defs data-v-fde0c5aa=""><!----></defs><rect data-v-fde0c5aa="" fill="#FFFFFF" x="0" y="0" width="300px" height="300px" class="logo-background-square"></rect><defs data-v-fde0c5aa=""><!----></defs><g data-v-fde0c5aa="" id="f1c1487a-e853-4aed-b0fc-c7ebaa2c27fd" fill="#000000" transform="matrix(3.1529654241450626,0,0,3.1529654241450626,109.35131832629165,128.76477819914226)"><path d="M5.08 10.64C6.99 10.64 8.22 9.87 8.97 8.20L8.53 8.01C7.80 9.55 6.75 10.18 5.10 10.18C2.62 10.18 1.22 8.47 1.22 5.74C1.22 3.00 2.59 1.39 5.04 1.39C6.71 1.39 7.77 2.13 8.41 3.40L8.89 3.23C8.15 1.65 6.85 0.95 5.04 0.95C2.35 0.95 0.70 2.65 0.70 5.74C0.70 8.71 2.20 10.64 5.08 10.64ZM11.58 4.27L11.58-0.24L11.10-0.24L11.10 10.50L11.58 10.50L11.58 6.43C11.58 4.54 12.60 3.56 13.89 3.56C15.13 3.56 15.85 4.17 15.85 5.66L15.85 10.50L16.32 10.50L16.32 5.60C16.32 4.10 15.68 3.14 13.97 3.14C12.52 3.14 11.77 4.12 11.55 5.05C11.55 4.83 11.58 4.38 11.58 4.27ZM19.07 10.50L19.56 10.50L19.56 3.28L19.07 3.28ZM19.00 1.39L19.63 1.39L19.63 0.60L19.00 0.60ZM28 6.82C28 4.17 26.96 3.14 25.26 3.14C23.86 3.14 23.06 3.85 22.75 4.96L22.71 3.28L22.23 3.28C22.23 3.28 22.26 4.55 22.26 5.21L22.26 13.62L22.74 13.62L22.74 9.18C22.74 8.97 22.72 8.76 22.71 8.60C23.03 10.02 24.07 10.64 25.21 10.64C27.22 10.64 28 9.31 28 6.82ZM27.50 6.80C27.50 9.41 26.63 10.22 25.14 10.22C23.69 10.22 22.74 9.27 22.74 6.78C22.74 4.40 23.77 3.56 25.24 3.56C26.54 3.56 27.50 4.38 27.50 6.80ZM34.65 8.58C34.65 7.10 33.39 6.83 32.16 6.54C30.87 6.23 30.07 5.87 30.07 4.89C30.07 4.02 30.80 3.56 31.98 3.56C33.14 3.56 33.77 3.99 34.02 4.87L34.50 4.83C34.19 3.75 33.50 3.14 31.99 3.14C30.34 3.14 29.60 3.89 29.60 4.93C29.60 6.29 30.70 6.68 31.88 6.94C33.28 7.27 34.19 7.55 34.19 8.61C34.19 9.70 33.42 10.23 32.03 10.23C30.74 10.23 30.06 9.72 29.78 8.76L29.33 8.86C29.62 10.09 30.60 10.64 32.00 10.64C33.71 10.64 34.65 9.91 34.65 8.58ZM36.65 13.71C37.46 13.71 37.79 13.44 38.25 12.24L41.65 3.28L41.15 3.28L39.42 7.90C39.03 8.96 38.67 10.04 38.67 10.04C38.67 10.04 38.25 8.93 37.86 7.92L36.06 3.28L35.56 3.28L38.42 10.56L37.83 12.12C37.51 12.99 37.34 13.31 36.47 13.31L35.84 13.31L35.84 13.71ZM47.78 8.58C47.78 7.10 46.52 6.83 45.29 6.54C44.00 6.23 43.20 5.87 43.20 4.89C43.20 4.02 43.93 3.56 45.11 3.56C46.27 3.56 46.90 3.99 47.15 4.87L47.63 4.83C47.32 3.75 46.63 3.14 45.12 3.14C43.47 3.14 42.73 3.89 42.73 4.93C42.73 6.29 43.83 6.68 45.01 6.94C46.41 7.27 47.32 7.55 47.32 8.61C47.32 9.70 46.55 10.23 45.16 10.23C43.88 10.23 43.19 9.72 42.91 8.76L42.46 8.86C42.76 10.09 43.74 10.64 45.14 10.64C46.84 10.64 47.78 9.91 47.78 8.58Z"></path></g><defs data-v-fde0c5aa=""><!----></defs><g data-v-fde0c5aa="" id="ba5cc4be-1f42-4961-be8e-49900e3e9f0a" stroke="none" fill="#000000" transform="matrix(0.8995387701000616,0,0,0.8995387701000616,24.52261026098297,106.0811761261831)"><path d="M73.12 42.34a12.66 12.66 0 0 0-9.73-.25l-.16.07c-.14.07-9.78 4.92-17.88 3.17A30 30 0 0 1 40 43.51c-3.25-1.35-6.61-2.75-11.79-1.56-4.47 1-7.77 3.24-9.54 6.37s-1.9 6.73-.58 10.78a16.2 16.2 0 0 0 20.39 10.4c3.77-1.23 9.29-6.32 14.45-11.83 4.27 3.5 13.81 7.8 19.74 5.68 3.63-1.3 6.08-3.28 7.28-5.88a10.12 10.12 0 0 0-.1-8.06 12.66 12.66 0 0 0-6.73-7.07zm-35.57 24.3a13.22 13.22 0 0 1-16.65-8.46c-1.05-3.22-.93-6.12.34-8.37s4-4.09 7.6-4.92A13.85 13.85 0 0 1 32 44.5a16.93 16.93 0 0 1 6.82 1.79 33 33 0 0 0 5.88 2c4.72 1 9.75.13 13.57-1l-1.72 1.82c-8.55 9.98-15.46 16.38-19 17.53zm39.67-10.43c-.83 1.82-2.75 3.3-5.56 4.3-4.56 1.63-13-2.1-16.7-5.07 1.33-1.47 2.61-2.95 3.81-4.35l6-6.31A9.74 9.74 0 0 1 77 50.48a7.25 7.25 0 0 1 .22 5.73zM33.74 38.69a5 5 0 0 0 2.76-.82l.1-.07c.6-.51 3.33-2.38 5.79-2.38a10.34 10.34 0 0 1 2 .23 6.65 6.65 0 0 0 4.57-.39A5.54 5.54 0 0 0 52.08 32a5.22 5.22 0 0 0-.66-4.23 6.33 6.33 0 0 0-8.66-2.28c-1.1.64-2.5 2.36-4.16 5.1-2-.86-5.47-1.55-7.49-.3a4.79 4.79 0 0 0-2.33 2.93 4.1 4.1 0 0 0 .72 3.2 5.08 5.08 0 0 0 4.24 2.27zm10-11.49a4.3 4.3 0 0 1 2.17-.59 4.36 4.36 0 0 1 1.11.14 4.3 4.3 0 0 1 2.64 2 3.25 3.25 0 0 1 .48 2.63 3.62 3.62 0 0 1-2.08 2 4.74 4.74 0 0 1-3.36.23 12.29 12.29 0 0 0-2.32-.26 9.46 9.46 0 0 0-3.59.8c2.11-3.74 3.94-6.35 4.98-6.95zm-13 6.44A3 3 0 0 1 32.16 32a3.48 3.48 0 0 1 1.84-.41 10.55 10.55 0 0 1 3.63.73q-.37.66-.76 1.39l-1.58 2.6a3.08 3.08 0 0 1-4.08-1 2.2 2.2 0 0 1-.48-1.67zM81.87 29.22a6.46 6.46 0 0 0-3.43-3.59h-.11c-.08 0-5-1.64-7.16-5a14.45 14.45 0 0 1-1.21-2.44 8.7 8.7 0 0 0-3.66-4.74 7.13 7.13 0 0 0-5.73-1.11 6.72 6.72 0 0 0-4.1 3.66 8.2 8.2 0 0 0 3.62 11c1.52.77 4.55 1.07 9 .93.37 2.79 2.22 7.44 5 8.76a7.33 7.33 0 0 0 3.1.77 4.73 4.73 0 0 0 1.66-.29 5.21 5.21 0 0 0 2.9-3 6.47 6.47 0 0 0 .12-4.95zM61 25.23a6.2 6.2 0 0 1-2.74-8.34 4.79 4.79 0 0 1 2.85-2.65 3.72 3.72 0 0 1 1-.14 6 6 0 0 1 3.12 1 6.78 6.78 0 0 1 2.87 3.81 16.3 16.3 0 0 0 1.37 2.76 13.32 13.32 0 0 0 4.34 4h-.3c-6.37.52-10.93.33-12.51-.44zm18.93 8.17a3.31 3.31 0 0 1-1.77 1.91 4.37 4.37 0 0 1-3.21-.42c-1.94-.92-3.51-4.77-3.86-7l2.53-.18 4.19-.12a4.51 4.51 0 0 1 2.12 5.8zM63 71.18a4.52 4.52 0 0 0-6.34.56l-.08.11a9.3 9.3 0 0 1-4.11 3.36 8.88 8.88 0 0 1-1.65.29A5.92 5.92 0 0 0 47 77a4.9 4.9 0 0 0-1.81 3.58A4.63 4.63 0 0 0 46.86 84a5.6 5.6 0 0 0 7.91-.29c.75-.8 1.47-2.55 2.16-5.19 1.87.2 4.9-.14 6.25-1.68a4.26 4.26 0 0 0 1.23-3.1A3.67 3.67 0 0 0 63 71.18zm-9.7 11.17a3.6 3.6 0 0 1-5.08.18 2.67 2.67 0 0 1-1-1.94 3 3 0 0 1 1.15-2.11 4 4 0 0 1 2.64-1 10.74 10.74 0 0 0 2-.37 8 8 0 0 0 2.51-1.34c-.74 3.44-1.52 5.87-2.22 6.58zm8.37-6.83c-.73.83-2.87 1.12-4.28 1q.12-.57.25-1.17l.64-2.5a2.51 2.51 0 0 1 3.4-.16 1.76 1.76 0 0 1 .73 1.17 2.45 2.45 0 0 1-.73 1.65z"></path></g><!----></svg>