<svg data-v-fde0c5aa="" xmlns="http://www.w3.org/2000/svg" viewBox="0 0 300 300" class="icon"><!----><defs data-v-fde0c5aa=""><!----></defs><rect data-v-fde0c5aa="" fill="#FFFFFF" x="0" y="0" width="300px" height="300px" class="logo-background-square"></rect><!----><defs data-v-fde0c5aa=""><!----></defs><g data-v-fde0c5aa="" id="f8c312e2-3c39-4b84-8c7c-a8bc22d1ca77" fill="#000000" stroke="none" transform="matrix(2.9995623793539585,0,0,2.9995623793539585,0.756656187141445,3.550223496515123)"><path d="M73.12 42.34a12.66 12.66 0 0 0-9.73-.25l-.16.07c-.14.07-9.78 4.92-17.88 3.17A30 30 0 0 1 40 43.51c-3.25-1.35-6.61-2.75-11.79-1.56-4.47 1-7.77 3.24-9.54 6.37s-1.9 6.73-.58 10.78a16.2 16.2 0 0 0 20.39 10.4c3.77-1.23 9.29-6.32 14.45-11.83 4.27 3.5 13.81 7.8 19.74 5.68 3.63-1.3 6.08-3.28 7.28-5.88a10.12 10.12 0 0 0-.1-8.06 12.66 12.66 0 0 0-6.73-7.07zm-35.57 24.3a13.22 13.22 0 0 1-16.65-8.46c-1.05-3.22-.93-6.12.34-8.37s4-4.09 7.6-4.92A13.85 13.85 0 0 1 32 44.5a16.93 16.93 0 0 1 6.82 1.79 33 33 0 0 0 5.88 2c4.72 1 9.75.13 13.57-1l-1.72 1.82c-8.55 9.98-15.46 16.38-19 17.53zm39.67-10.43c-.83 1.82-2.75 3.3-5.56 4.3-4.56 1.63-13-2.1-16.7-5.07 1.33-1.47 2.61-2.95 3.81-4.35l6-6.31A9.74 9.74 0 0 1 77 50.48a7.25 7.25 0 0 1 .22 5.73zM33.74 38.69a5 5 0 0 0 2.76-.82l.1-.07c.6-.51 3.33-2.38 5.79-2.38a10.34 10.34 0 0 1 2 .23 6.65 6.65 0 0 0 4.57-.39A5.54 5.54 0 0 0 52.08 32a5.22 5.22 0 0 0-.66-4.23 6.33 6.33 0 0 0-8.66-2.28c-1.1.64-2.5 2.36-4.16 5.1-2-.86-5.47-1.55-7.49-.3a4.79 4.79 0 0 0-2.33 2.93 4.1 4.1 0 0 0 .72 3.2 5.08 5.08 0 0 0 4.24 2.27zm10-11.49a4.3 4.3 0 0 1 2.17-.59 4.36 4.36 0 0 1 1.11.14 4.3 4.3 0 0 1 2.64 2 3.25 3.25 0 0 1 .48 2.63 3.62 3.62 0 0 1-2.08 2 4.74 4.74 0 0 1-3.36.23 12.29 12.29 0 0 0-2.32-.26 9.46 9.46 0 0 0-3.59.8c2.11-3.74 3.94-6.35 4.98-6.95zm-13 6.44A3 3 0 0 1 32.16 32a3.48 3.48 0 0 1 1.84-.41 10.55 10.55 0 0 1 3.63.73q-.37.66-.76 1.39l-1.58 2.6a3.08 3.08 0 0 1-4.08-1 2.2 2.2 0 0 1-.48-1.67zM81.87 29.22a6.46 6.46 0 0 0-3.43-3.59h-.11c-.08 0-5-1.64-7.16-5a14.45 14.45 0 0 1-1.21-2.44 8.7 8.7 0 0 0-3.66-4.74 7.13 7.13 0 0 0-5.73-1.11 6.72 6.72 0 0 0-4.1 3.66 8.2 8.2 0 0 0 3.62 11c1.52.77 4.55 1.07 9 .93.37 2.79 2.22 7.44 5 8.76a7.33 7.33 0 0 0 3.1.77 4.73 4.73 0 0 0 1.66-.29 5.21 5.21 0 0 0 2.9-3 6.47 6.47 0 0 0 .12-4.95zM61 25.23a6.2 6.2 0 0 1-2.74-8.34 4.79 4.79 0 0 1 2.85-2.65 3.72 3.72 0 0 1 1-.14 6 6 0 0 1 3.12 1 6.78 6.78 0 0 1 2.87 3.81 16.3 16.3 0 0 0 1.37 2.76 13.32 13.32 0 0 0 4.34 4h-.3c-6.37.52-10.93.33-12.51-.44zm18.93 8.17a3.31 3.31 0 0 1-1.77 1.91 4.37 4.37 0 0 1-3.21-.42c-1.94-.92-3.51-4.77-3.86-7l2.53-.18 4.19-.12a4.51 4.51 0 0 1 2.12 5.8zM63 71.18a4.52 4.52 0 0 0-6.34.56l-.08.11a9.3 9.3 0 0 1-4.11 3.36 8.88 8.88 0 0 1-1.65.29A5.92 5.92 0 0 0 47 77a4.9 4.9 0 0 0-1.81 3.58A4.63 4.63 0 0 0 46.86 84a5.6 5.6 0 0 0 7.91-.29c.75-.8 1.47-2.55 2.16-5.19 1.87.2 4.9-.14 6.25-1.68a4.26 4.26 0 0 0 1.23-3.1A3.67 3.67 0 0 0 63 71.18zm-9.7 11.17a3.6 3.6 0 0 1-5.08.18 2.67 2.67 0 0 1-1-1.94 3 3 0 0 1 1.15-2.11 4 4 0 0 1 2.64-1 10.74 10.74 0 0 0 2-.37 8 8 0 0 0 2.51-1.34c-.74 3.44-1.52 5.87-2.22 6.58zm8.37-6.83c-.73.83-2.87 1.12-4.28 1q.12-.57.25-1.17l.64-2.5a2.51 2.51 0 0 1 3.4-.16 1.76 1.76 0 0 1 .73 1.17 2.45 2.45 0 0 1-.73 1.65z"></path></g><!----></svg>